<?xml version="1.0" encoding="utf-8"?>
<!-- Generator: Adobe Illustrator 16.0.0, SVG Export Plug-In . SVG Version: 6.00 Build 0)  -->
<!DOCTYPE svg PUBLIC "-//W3C//DTD SVG 1.1//EN" "http://www.w3.org/Graphics/SVG/1.1/DTD/svg11.dtd">
<svg version="1.1" id="WelcomeLayer_1" xmlns="http://www.w3.org/2000/svg" xmlns:xlink="http://www.w3.org/1999/xlink" x="0px"
	 y="0px" width="576px" height="576px" viewBox="0 0 576 576" enable-background="new 0 0 576 576" xml:space="preserve">
<g>
	<g id="XMLID_1_">
		<g id="body">
			
				<radialGradient id="topHole_2_" cx="412.5947" cy="-783.2246" r="162.8228" gradientTransform="matrix(1 0 0 -1 -126 -608)" gradientUnits="userSpaceOnUse">
				<stop  offset="0.3158" style="stop-color:#575455"/>
				<stop  offset="0.8337" style="stop-color:#000000"/>
			</radialGradient>
			<path id="topHole" fill="url(#topHole_2_)" d="M417.288,72.64c5.692,2.638,13.537,7.532,8.109,13.605
				c-0.174,0.201-0.382,0.415-0.591,0.617c-5.634,5.477-15.22,7.835-22.156,9.642c-14.896,3.872-29.924,5.826-45.182,7.318
				c-23.357,2.278-46.659,3.019-70.106,2.727c-23.425-0.303-46.671-1.594-69.917-4.669c-10.315-1.358-20.53-3.042-30.655-5.533
				c-6.834-1.695-13.479-3.547-19.822-6.814c-2.582-1.335-5.31-3.086-6.881-5.162c-1.796-2.38-2.076-5.175,1.112-8.25
				c2.458-2.368,5.298-3.738,8.339-5.052c4.714-2.042,9.575-3.479,14.524-4.748c14.648-3.727,29.43-5.668,44.404-7.127
				c23.358-2.279,46.66-3.031,70.12-2.727c23.436,0.292,46.682,1.593,69.95,4.659C383.919,63.168,402.786,65.917,417.288,72.64z"/>
			<path id="bucket" fill="#BBBDC0" d="M427.2,86.333c-2.548,45.268-5.085,90.547-7.633,135.827
				c-0.281,4.939-2.559,8.081-5.892,11.405c-5.232,5.219-11.315,8.351-17.971,11.235c-10.741,4.659-21.809,7.554-33.256,9.844
				c-22.979,4.605-45.839,6.196-69.221,5.983c-23.38-0.213-46.2-2.211-69.097-7.207c-11.404-2.492-22.426-5.567-33.101-10.404
				c-6.544-2.953-12.549-6.174-17.712-11.358c-3.333-3.345-5.668-6.53-5.982-11.505c-2.852-45.01-5.69-89.993-8.542-134.995
				l1.302-0.786c1.571,2.077,4.299,3.828,6.881,5.162c6.341,3.266,12.986,5.119,19.822,6.814
				c10.124,2.491,20.338,4.174,30.653,5.532c23.245,3.076,46.491,4.367,69.917,4.669c23.447,0.292,46.75-0.449,70.107-2.727
				c15.255-1.493,30.287-3.445,45.181-7.318c6.937-1.807,16.522-4.165,22.157-9.642c0.213-0.202,0.414-0.415,0.595-0.617
				L427.2,86.333z"/>
		</g>
	</g>
	<path id="introMouth" fill="none" stroke="#010101" stroke-width="6" stroke-linecap="round" stroke-linejoin="round" d="
		M282.894,198.278c3.368,10.664,18.521,11.786,21.888,1.122"/>
	<g id="happyWelcome">
		
			<line fill="none" stroke="#000000" stroke-width="6" stroke-linecap="round" stroke-miterlimit="10" x1="223.679" y1="173.831" x2="234.953" y2="159.913"/>
		
			<line fill="none" stroke="#000000" stroke-width="6" stroke-linecap="round" stroke-miterlimit="10" x1="246.228" y1="173.831" x2="234.953" y2="159.913"/>
		
			<line fill="none" stroke="#000000" stroke-width="6" stroke-linecap="round" stroke-miterlimit="10" x1="342.829" y1="173.831" x2="354.104" y2="159.913"/>
		
			<line fill="none" stroke="#000000" stroke-width="6" stroke-linecap="round" stroke-miterlimit="10" x1="365.379" y1="173.831" x2="354.104" y2="159.913"/>
	</g>
	<g id="openEyesWelcome">
		<g id="leftEyeFullWelcome">
			<circle id="leftCircleWelcome" fill="#010101" cx="235.191" cy="169.891" r="16.274"/>
			<g id="leftPupilWelcome">
				<path id="bottomLeftWelcome" fill="#FFFFFF" d="M226.973,163.13c0.907,2.308,3.685,0.959,6.448-0.128
					c2.762-1.089,4.462-1.506,3.554-3.813c-0.908-2.307-3.885-3.295-6.647-2.207C227.564,158.071,226.062,160.822,226.973,163.13z"
					/>
				<circle id="topLeftWelcome" fill="#FFFFFF" cx="232.104" cy="168.208" r="2.104"/>
			</g>
		</g>
		<g id="rightEyeFullWelcome">
			<circle id="rightCircleWelcome" fill="#010101" cx="354.032" cy="169.891" r="16.274"/>
			<g id="rightPupilWelcome">
				<path id="bottomRightWelcome" fill="#FFFFFF" d="M345.812,163.13c0.909,2.308,3.681,0.959,6.441-0.128
					c2.767-1.089,4.466-1.506,3.562-3.813c-0.917-2.307-3.888-3.295-6.648-2.207C346.404,158.071,344.901,160.822,345.812,163.13z"
					/>
				<circle id="topRightWelcome" fill="#FFFFFF" cx="350.945" cy="168.208" r="2.104"/>
			</g>
		</g>
	</g>
</g>
<g>
	<g id="XMLID_2_">
		<g id="body_1_">
			
				<radialGradient id="topHole_3_" cx="412.5947" cy="-991.4009" r="162.8234" gradientTransform="matrix(1 0 0 -1 -126 -608)" gradientUnits="userSpaceOnUse">
				<stop  offset="0.3158" style="stop-color:#575455"/>
				<stop  offset="0.8337" style="stop-color:#000000"/>
			</radialGradient>
			<path id="topHole_1_" fill="url(#topHole_3_)" d="M417.288,280.816c5.692,2.637,13.537,7.531,8.109,13.604
				c-0.174,0.202-0.382,0.416-0.591,0.617c-5.634,5.477-15.22,7.835-22.156,9.642c-14.896,3.872-29.924,5.827-45.182,7.319
				c-23.357,2.278-46.659,3.018-70.106,2.728c-23.425-0.304-46.671-1.595-69.917-4.671c-10.315-1.357-20.53-3.041-30.655-5.533
				c-6.834-1.695-13.479-3.547-19.822-6.813c-2.582-1.336-5.31-3.086-6.881-5.162c-1.796-2.38-2.076-5.176,1.112-8.25
				c2.458-2.368,5.298-3.738,8.339-5.051c4.714-2.043,9.575-3.479,14.524-4.748c14.648-3.727,29.43-5.668,44.404-7.127
				c23.358-2.28,46.66-3.031,70.12-2.728c23.436,0.292,46.682,1.593,69.95,4.659C383.919,271.342,402.786,274.092,417.288,280.816z"
				/>
			<path id="bucket_1_" fill="#BBBDC0" d="M427.2,294.509c-2.548,45.268-5.085,90.547-7.633,135.826
				c-0.281,4.938-2.559,8.081-5.892,11.404c-5.232,5.218-11.315,8.351-17.971,11.236c-10.741,4.657-21.809,7.554-33.256,9.843
				c-22.979,4.605-45.839,6.196-69.221,5.983c-23.38-0.214-46.2-2.211-69.097-7.207c-11.404-2.492-22.426-5.566-33.101-10.403
				c-6.544-2.951-12.549-6.173-17.712-11.358c-3.333-3.345-5.668-6.53-5.982-11.505c-2.852-45.009-5.69-89.992-8.542-134.995
				l1.302-0.786c1.571,2.076,4.299,3.828,6.881,5.164c6.341,3.266,12.986,5.117,19.822,6.812
				c10.124,2.492,20.338,4.177,30.653,5.534c23.245,3.075,46.491,4.366,69.917,4.67c23.447,0.292,46.75-0.45,70.107-2.728
				c15.255-1.493,30.287-3.445,45.181-7.319c6.937-1.807,16.522-4.164,22.157-9.642c0.213-0.202,0.414-0.416,0.595-0.616
				L427.2,294.509z"/>
		</g>
	</g>
	<path id="introMouth_1_" fill="none" stroke="#010101" stroke-width="6" stroke-linecap="round" stroke-linejoin="round" d="
		M282.894,406.454c3.368,10.663,18.521,11.787,21.888,1.123"/>
	<g id="happyWelcome_1_">
		
			<line fill="none" stroke="#000000" stroke-width="6" stroke-linecap="round" stroke-miterlimit="10" x1="223.679" y1="382.006" x2="234.953" y2="368.088"/>
		
			<line fill="none" stroke="#000000" stroke-width="6" stroke-linecap="round" stroke-miterlimit="10" x1="246.228" y1="382.006" x2="234.953" y2="368.088"/>
		
			<line fill="none" stroke="#000000" stroke-width="6" stroke-linecap="round" stroke-miterlimit="10" x1="342.829" y1="382.006" x2="354.104" y2="368.088"/>
		
			<line fill="none" stroke="#000000" stroke-width="6" stroke-linecap="round" stroke-miterlimit="10" x1="365.379" y1="382.006" x2="354.104" y2="368.088"/>
	</g>
</g>
</svg>
