<?xml version="1.0" encoding="utf-8"?>
<!-- Generator: Adobe Illustrator 16.0.0, SVG Export Plug-In . SVG Version: 6.00 Build 0)  -->
<!DOCTYPE svg PUBLIC "-//W3C//DTD SVG 1.1//EN" "http://www.w3.org/Graphics/SVG/1.1/DTD/svg11.dtd">
<svg version="1.1" id="WelcomeLayer_1" xmlns="http://www.w3.org/2000/svg" xmlns:xlink="http://www.w3.org/1999/xlink" x="0px"
	 y="0px" width="576px" height="576px" viewBox="0 -72 576 576" enable-background="new 0 -72 576 576" xml:space="preserve">
<g>
	<g id="XMLID_1_">
		<g id="body">
			
				<radialGradient id="topHole_2_" cx="387.416" cy="1177.4746" r="218.2545" gradientTransform="matrix(1 0 0 1 -108 -1077)" gradientUnits="userSpaceOnUse">
				<stop  offset="0.3158" style="stop-color:#575455"/>
				<stop  offset="0.8337" style="stop-color:#000000"/>
			</radialGradient>
			<path id="topHole" fill="url(#topHole_2_)" d="M454.604-37.034c7.629,3.536,18.145,10.096,10.87,18.236
				c-0.233,0.27-0.512,0.557-0.792,0.827c-7.553,7.342-20.402,10.502-29.7,12.924c-19.966,5.191-40.111,7.809-60.562,9.81
				c-31.31,3.054-62.545,4.047-93.975,3.656c-31.4-0.406-62.56-2.137-93.719-6.259c-13.827-1.82-27.519-4.077-41.09-7.417
				c-9.163-2.272-18.069-4.755-26.571-9.133c-3.461-1.79-7.117-4.138-9.223-6.92c-2.408-3.19-2.783-6.936,1.49-11.059
				c3.295-3.174,7.102-5.01,11.179-6.771c6.319-2.738,12.834-4.663,19.469-6.364c19.635-4.996,39.449-7.598,59.521-9.554
				c31.31-3.054,62.544-4.062,93.99-3.655c31.416,0.392,62.575,2.136,93.765,6.244C409.873-49.732,435.165-46.046,454.604-37.034z"
				/>
			<path id="bucket" fill="#BBBDC0" d="M467.89-18.679c-3.416,60.679-6.816,121.374-10.231,182.068
				c-0.377,6.62-3.431,10.832-7.899,15.287c-7.013,6.996-15.166,11.193-24.088,15.061c-14.398,6.244-29.234,10.125-44.577,13.195
				c-30.803,6.173-61.446,8.304-92.786,8.019s-61.928-2.963-92.621-9.659c-15.286-3.341-30.061-7.463-44.369-13.947
				c-8.772-3.957-16.821-8.275-23.742-15.224c-4.468-4.484-7.598-8.753-8.019-15.422c-3.822-60.333-7.628-120.629-11.45-180.953
				l1.745-1.053c2.106,2.784,5.762,5.131,9.223,6.92c8.5,4.378,17.407,6.861,26.571,9.133c13.571,3.34,27.262,5.597,41.089,7.417
				c31.159,4.123,62.318,5.853,93.719,6.259c31.43,0.391,62.665-0.602,93.975-3.656c20.447-2.001,40.598-4.618,60.562-9.81
				c9.298-2.422,22.147-5.582,29.7-12.924c0.286-0.271,0.556-0.556,0.797-0.827L467.89-18.679z"/>
		</g>
	</g>
	<path id="introMouth" fill="none" stroke="#010101" stroke-width="6" stroke-linecap="round" stroke-linejoin="round" d="
		M274.456,131.377c4.514,14.294,24.826,15.798,29.34,1.504"/>
	<g id="closedEyesWelcome">
		<path fill="none" stroke="#010101" stroke-width="7.4393" stroke-linecap="round" stroke-linejoin="round" d="M191.622,91.78
			c5.829,12.559,32.061,13.885,37.889,1.322"/>
		<path fill="none" stroke="#010101" stroke-width="7.4393" stroke-linecap="round" stroke-linejoin="round" d="M351.168,91.082
			c5.797,14.294,31.857,15.798,37.644,1.504"/>
	</g>
	<g id="happyWelcome">
		
			<line fill="none" stroke="#000000" stroke-width="6" stroke-linecap="round" stroke-miterlimit="10" x1="195.081" y1="98.606" x2="210.194" y2="79.95"/>
		
			<line fill="none" stroke="#000000" stroke-width="6" stroke-linecap="round" stroke-miterlimit="10" x1="225.307" y1="98.606" x2="210.194" y2="79.95"/>
		
			<line fill="none" stroke="#000000" stroke-width="6" stroke-linecap="round" stroke-miterlimit="10" x1="354.795" y1="98.606" x2="369.908" y2="79.95"/>
		
			<line fill="none" stroke="#000000" stroke-width="6" stroke-linecap="round" stroke-miterlimit="10" x1="385.021" y1="98.606" x2="369.908" y2="79.95"/>
	</g>
	<g id="openEyesWelcome">
		<g id="leftEyeFullWelcome">
			<circle id="leftCircleWelcome" fill="#010101" cx="210.512" cy="93.325" r="21.815"/>
			<g id="leftPupilWelcome">
				<path id="bottomLeftWelcome" fill="#FFFFFF" d="M199.496,84.262c1.217,3.093,4.94,1.286,8.643-0.172
					c3.703-1.46,5.983-2.019,4.765-5.112c-1.218-3.092-5.208-4.416-8.911-2.958C200.289,77.481,198.276,81.169,199.496,84.262z"/>
				<circle id="topLeftWelcome" fill="#FFFFFF" cx="206.375" cy="91.068" r="2.821"/>
			</g>
		</g>
		<g id="rightEyeFullWelcome">
			<circle id="rightCircleWelcome" fill="#010101" cx="369.812" cy="93.325" r="21.815"/>
			<g id="rightPupilWelcome">
				<path id="bottomRightWelcome" fill="#FFFFFF" d="M358.792,84.262c1.219,3.093,4.935,1.286,8.635-0.172
					c3.71-1.46,5.986-2.019,4.773-5.112c-1.228-3.092-5.209-4.416-8.91-2.958C359.589,77.481,357.572,81.169,358.792,84.262z"/>
				<circle id="topRightWelcome" fill="#FFFFFF" cx="365.674" cy="91.068" r="2.821"/>
			</g>
		</g>
	</g>
</g>
<g>
	<g id="XMLID_2_">
		<g id="body_1_">
			
				<radialGradient id="topHole_3_" cx="387.416" cy="1456.5215" r="218.2545" gradientTransform="matrix(1 0 0 1 -108 -1077)" gradientUnits="userSpaceOnUse">
				<stop  offset="0.3158" style="stop-color:#575455"/>
				<stop  offset="0.8337" style="stop-color:#000000"/>
			</radialGradient>
			<path id="topHole_1_" fill="url(#topHole_3_)" d="M454.604,242.013c7.629,3.536,18.145,10.097,10.87,18.236
				c-0.233,0.271-0.512,0.557-0.792,0.827c-7.553,7.342-20.402,10.502-29.7,12.924c-19.966,5.191-40.111,7.81-60.562,9.81
				c-31.31,3.055-62.545,4.048-93.975,3.657c-31.4-0.406-62.56-2.138-93.719-6.26c-13.827-1.82-27.519-4.077-41.09-7.417
				c-9.163-2.272-18.069-4.755-26.571-9.134c-3.461-1.79-7.117-4.137-9.223-6.92c-2.408-3.19-2.783-6.937,1.49-11.059
				c3.295-3.174,7.102-5.01,11.179-6.771c6.319-2.738,12.834-4.663,19.469-6.364c19.635-4.995,39.449-7.598,59.521-9.554
				c31.31-3.054,62.544-4.062,93.99-3.655c31.416,0.392,62.575,2.136,93.765,6.244C409.873,229.314,435.165,233,454.604,242.013z"/>
			<path id="bucket_1_" fill="#BBBDC0" d="M467.89,260.368c-3.416,60.679-6.816,121.373-10.231,182.067
				c-0.377,6.62-3.431,10.832-7.899,15.287c-7.013,6.995-15.166,11.193-24.088,15.061c-14.398,6.243-29.234,10.125-44.577,13.195
				c-30.803,6.173-61.446,8.304-92.786,8.019c-31.34-0.286-61.928-2.964-92.621-9.659c-15.286-3.341-30.061-7.463-44.369-13.946
				c-8.772-3.956-16.821-8.275-23.742-15.225c-4.468-4.483-7.598-8.753-8.019-15.422c-3.822-60.333-7.628-120.63-11.45-180.953
				l1.745-1.053c2.106,2.783,5.762,5.131,9.223,6.92c8.5,4.379,17.407,6.861,26.571,9.134c13.571,3.34,27.262,5.597,41.089,7.417
				c31.159,4.122,62.318,5.853,93.719,6.259c31.43,0.392,62.665-0.602,93.975-3.656c20.447-2,40.598-4.618,60.562-9.81
				c9.298-2.422,22.147-5.581,29.7-12.924c0.286-0.271,0.556-0.557,0.797-0.827L467.89,260.368z"/>
		</g>
	</g>
	<path id="introMouth_1_" fill="none" stroke="#010101" stroke-width="6" stroke-linecap="round" stroke-linejoin="round" d="
		M274.456,410.424c4.514,14.294,24.826,15.799,29.34,1.505"/>
	<g id="happyWelcome_1_">
		
			<line fill="none" stroke="#000000" stroke-width="6" stroke-linecap="round" stroke-miterlimit="10" x1="195.081" y1="377.653" x2="210.194" y2="358.996"/>
		
			<line fill="none" stroke="#000000" stroke-width="6" stroke-linecap="round" stroke-miterlimit="10" x1="225.307" y1="377.653" x2="210.194" y2="358.996"/>
		
			<line fill="none" stroke="#000000" stroke-width="6" stroke-linecap="round" stroke-miterlimit="10" x1="354.795" y1="377.653" x2="369.908" y2="358.996"/>
		
			<line fill="none" stroke="#000000" stroke-width="6" stroke-linecap="round" stroke-miterlimit="10" x1="385.021" y1="377.653" x2="369.908" y2="358.996"/>
	</g>
</g>
</svg>
