<?xml version="1.0" encoding="utf-8"?>
<!-- Generator: Adobe Illustrator 16.0.0, SVG Export Plug-In . SVG Version: 6.00 Build 0)  -->
<!DOCTYPE svg PUBLIC "-//W3C//DTD SVG 1.1//EN" "http://www.w3.org/Graphics/SVG/1.1/DTD/svg11.dtd">
<svg version="1.1" id="IntroLayer_1" xmlns="http://www.w3.org/2000/svg" xmlns:xlink="http://www.w3.org/1999/xlink" x="0px"
	 y="0px" width="576px" height="216px" viewBox="0 108 576 216" enable-background="new 0 108 576 216" xml:space="preserve">
<g>
	<g id="XMLID_1_">
		<g id="body">
			
				<radialGradient id="topHole_2_" cx="520.9727" cy="-625.0908" r="161.6958" gradientTransform="matrix(1 0 0 -1 -90 -393)" gradientUnits="userSpaceOnUse">
				<stop  offset="0.3158" style="stop-color:#575455"/>
				<stop  offset="0.8337" style="stop-color:#000000"/>
			</radialGradient>
			<path id="topHole" fill="url(#topHole_2_)" d="M560.762,130.218c5.651,2.619,13.442,7.479,8.054,13.51
				c-0.174,0.2-0.379,0.412-0.587,0.613c-5.596,5.44-15.115,7.781-22.004,9.575c-14.792,3.846-29.717,5.785-44.868,7.268
				c-23.195,2.263-46.336,2.999-69.621,2.709c-23.264-0.301-46.348-1.583-69.433-4.638c-10.244-1.348-20.388-3.021-30.442-5.495
				c-6.787-1.683-13.387-3.523-19.685-6.766c-2.563-1.327-5.272-3.066-6.833-5.127c-1.783-2.363-2.062-5.138,1.104-8.193
				c2.441-2.352,5.262-3.711,8.283-5.016c4.681-2.029,9.508-3.456,14.423-4.715c14.546-3.701,29.227-5.629,44.097-7.078
				c23.195-2.263,46.336-3.009,69.633-2.708c23.274,0.29,46.358,1.583,69.466,4.626C527.622,120.81,546.36,123.541,560.762,130.218z
				"/>
			<path id="bucket" fill="#BBBDC0" d="M570.604,143.816c-2.531,44.954-5.05,89.92-7.58,134.886
				c-0.279,4.904-2.542,8.025-5.853,11.325c-5.195,5.183-11.235,8.293-17.846,11.158c-10.667,4.625-21.658,7.501-33.025,9.775
				c-22.82,4.573-45.522,6.152-68.741,5.94c-23.219-0.211-45.88-2.195-68.619-7.155c-11.324-2.476-22.271-5.529-32.871-10.333
				c-6.498-2.931-12.461-6.131-17.59-11.278c-3.311-3.322-5.629-6.485-5.941-11.426c-2.831-44.698-5.65-89.37-8.482-134.061
				l1.293-0.78c1.561,2.062,4.27,3.801,6.834,5.127c6.297,3.244,12.896,5.083,19.685,6.766c10.055,2.475,20.198,4.147,30.441,5.495
				c23.085,3.054,46.169,4.336,69.433,4.637c23.285,0.29,46.427-0.446,69.621-2.709c15.149-1.482,30.077-3.421,44.868-7.267
				c6.889-1.795,16.408-4.135,22.004-9.575c0.211-0.201,0.412-0.412,0.591-0.613L570.604,143.816z"/>
		</g>
	</g>
	<path id="introMouth" fill="none" stroke="#010101" stroke-width="6" stroke-linecap="round" stroke-linejoin="round" d="
		M431.798,254.986c1.959,6.551,10.777,7.24,12.736,0.689"/>
	<g id="happyIntro">
		
			<line fill="none" stroke="#000000" stroke-width="6" stroke-linecap="round" stroke-miterlimit="10" x1="368.491" y1="230.708" x2="379.688" y2="216.886"/>
		
			<line fill="none" stroke="#000000" stroke-width="6" stroke-linecap="round" stroke-miterlimit="10" x1="390.886" y1="230.708" x2="379.688" y2="216.886"/>
		
			<line fill="none" stroke="#000000" stroke-width="6" stroke-linecap="round" stroke-miterlimit="10" x1="486.817" y1="230.708" x2="498.014" y2="216.886"/>
		
			<line fill="none" stroke="#000000" stroke-width="6" stroke-linecap="round" stroke-miterlimit="10" x1="509.211" y1="230.708" x2="498.014" y2="216.886"/>
	</g>
</g>
<g>
	<g id="XMLID_2_">
		<g id="body_1_">
			
				<radialGradient id="topHole_3_" cx="222.9717" cy="-625.0908" r="161.6958" gradientTransform="matrix(1 0 0 -1 -90 -393)" gradientUnits="userSpaceOnUse">
				<stop  offset="0.3158" style="stop-color:#575455"/>
				<stop  offset="0.8337" style="stop-color:#000000"/>
			</radialGradient>
			<path id="topHole_1_" fill="url(#topHole_3_)" d="M262.761,130.218c5.651,2.619,13.442,7.479,8.054,13.51
				c-0.174,0.2-0.379,0.412-0.587,0.613c-5.596,5.44-15.115,7.781-22.004,9.575c-14.792,3.846-29.717,5.785-44.868,7.268
				c-23.195,2.263-46.336,2.999-69.621,2.709c-23.264-0.301-46.348-1.583-69.433-4.638c-10.244-1.348-20.388-3.021-30.442-5.495
				c-6.787-1.683-13.387-3.523-19.685-6.766c-2.563-1.327-5.272-3.066-6.833-5.127c-1.783-2.363-2.062-5.138,1.104-8.193
				c2.441-2.352,5.262-3.711,8.283-5.016c4.681-2.029,9.508-3.456,14.423-4.715c14.546-3.701,29.227-5.629,44.097-7.078
				c23.195-2.263,46.336-3.009,69.633-2.708c23.274,0.29,46.358,1.583,69.466,4.626C229.622,120.81,248.36,123.541,262.761,130.218z
				"/>
			<path id="bucket_1_" fill="#BBBDC0" d="M272.604,143.816c-2.531,44.954-5.05,89.92-7.58,134.886
				c-0.279,4.904-2.542,8.025-5.853,11.325c-5.195,5.183-11.235,8.293-17.846,11.158c-10.667,4.625-21.658,7.501-33.025,9.775
				c-22.82,4.573-45.522,6.152-68.741,5.94c-23.219-0.211-45.88-2.195-68.619-7.155c-11.324-2.476-22.271-5.529-32.871-10.333
				c-6.498-2.931-12.461-6.131-17.59-11.278c-3.311-3.322-5.629-6.485-5.941-11.426c-2.831-44.698-5.65-89.37-8.482-134.061
				l1.293-0.78c1.561,2.062,4.27,3.801,6.834,5.127c6.297,3.244,12.896,5.083,19.685,6.766c10.055,2.475,20.198,4.147,30.441,5.495
				c23.085,3.054,46.169,4.336,69.433,4.637c23.285,0.29,46.427-0.446,69.621-2.709c15.149-1.482,30.077-3.421,44.868-7.267
				c6.889-1.795,16.408-4.135,22.004-9.575c0.211-0.201,0.412-0.412,0.591-0.613L272.604,143.816z"/>
		</g>
	</g>
	<path id="introMouth_1_" fill="none" stroke="#010101" stroke-width="6" stroke-linecap="round" stroke-linejoin="round" d="
		M129.297,254.986c3.344,10.59,18.393,11.704,21.736,1.114"/>
	<g id="openEyesIntro_1_">
		<g id="leftEyeFullIntro_1_">
			<circle id="leftCircleIntro_1_" fill="#010101" cx="81.924" cy="226.795" r="16.162"/>
			<g id="leftPupilIntro_1_">
				<path id="bottomLeftIntro_1_" fill="#FFFFFF" d="M73.762,220.081c0.901,2.291,3.66,0.952,6.402-0.128
					c2.744-1.082,4.434-1.495,3.53-3.787c-0.902-2.291-3.858-3.271-6.602-2.191C74.35,215.057,72.859,217.789,73.762,220.081z"/>
				<circle id="topLeftIntro_1_" fill="#FFFFFF" cx="78.859" cy="225.123" r="2.09"/>
			</g>
		</g>
		<g id="rightEyeFullIntro_1_">
			<circle id="rightCircleIntro_1_" fill="#010101" cx="199.942" cy="226.795" r="16.162"/>
			<g id="rightPupilIntro_1_">
				<path id="bottomRightIntro_1_" fill="#FFFFFF" d="M191.778,220.081c0.903,2.291,3.656,0.952,6.397-0.128
					c2.749-1.082,4.436-1.495,3.537-3.787c-0.909-2.291-3.859-3.271-6.602-2.191C192.368,215.057,190.875,217.789,191.778,220.081z"
					/>
				<circle id="topRightIntro_1_" fill="#FFFFFF" cx="196.876" cy="225.123" r="2.09"/>
			</g>
		</g>
	</g>
</g>
</svg>
