<?xml version="1.0" encoding="utf-8"?>
<!-- Generator: Adobe Illustrator 16.0.0, SVG Export Plug-In . SVG Version: 6.00 Build 0)  -->
<!DOCTYPE svg PUBLIC "-//W3C//DTD SVG 1.1//EN" "http://www.w3.org/Graphics/SVG/1.1/DTD/svg11.dtd">
<svg version="1.1" class="bucketShadow" xmlns="http://www.w3.org/2000/svg" xmlns:xlink="http://www.w3.org/1999/xlink" x="0px"
	 y="0px" width="576px" height="108px" viewBox="0 0 576 108" enable-background="new 0 0 576 108" xml:space="preserve">
<path class="shadow" opacity="0.6" d="M431.504,41.017c6.662,3.863,15.848,11.029,9.497,19.922c-0.207,0.295-0.446,0.607-0.692,0.903
	c-6.597,8.021-17.818,11.473-25.939,14.119c-17.438,5.671-35.032,8.53-52.893,10.716c-27.345,3.337-54.624,4.422-82.074,3.995
	c-27.423-0.444-54.637-2.335-81.851-6.838c-12.077-1.989-24.034-4.454-35.886-8.104c-8.003-2.481-15.782-5.194-23.207-9.977
	c-3.022-1.956-6.216-4.521-8.055-7.561c-2.103-3.484-2.43-7.577,1.301-12.081c2.878-3.467,6.203-5.473,9.764-7.396
	c5.519-2.992,11.208-5.096,17.003-6.952c17.148-5.457,34.454-8.302,51.983-10.437c27.345-3.337,54.625-4.438,82.087-3.994
	c27.438,0.427,54.651,2.333,81.892,6.821C392.438,27.145,414.527,31.172,431.504,41.017z"/>
</svg>
